<mxfile host="app.diagrams.net" agent="Mozilla/5.0 (X11; Ubuntu; Linux x86_64; rv:137.0) Gecko/20100101 Firefox/137.0" version="26.2.13">
  <diagram name="Page-1" id="pJM13N5WxgtI3sPW9mC0">
    <mxGraphModel dx="1358" dy="763" grid="1" gridSize="10" guides="1" tooltips="1" connect="1" arrows="1" fold="1" page="1" pageScale="1" pageWidth="850" pageHeight="1100" math="0" shadow="0">
      <root>
        <mxCell id="0" />
        <mxCell id="1" parent="0" />
        <mxCell id="EPGY-EgANNBScpYWpXv3-1" value="" style="rounded=0;whiteSpace=wrap;html=1;" vertex="1" parent="1">
          <mxGeometry x="165" y="80" width="40" height="120" as="geometry" />
        </mxCell>
        <mxCell id="EPGY-EgANNBScpYWpXv3-2" value="&lt;b&gt;i-node entry&lt;/b&gt;" style="text;html=1;align=center;verticalAlign=middle;whiteSpace=wrap;rounded=0;" vertex="1" parent="1">
          <mxGeometry x="140" y="40" width="90" height="30" as="geometry" />
        </mxCell>
        <mxCell id="EPGY-EgANNBScpYWpXv3-4" style="edgeStyle=orthogonalEdgeStyle;rounded=0;orthogonalLoop=1;jettySize=auto;html=1;entryX=0;entryY=0.5;entryDx=0;entryDy=0;" edge="1" parent="1" source="EPGY-EgANNBScpYWpXv3-3" target="EPGY-EgANNBScpYWpXv3-1">
          <mxGeometry relative="1" as="geometry" />
        </mxCell>
        <mxCell id="EPGY-EgANNBScpYWpXv3-3" value="Other file information" style="text;html=1;align=center;verticalAlign=middle;whiteSpace=wrap;rounded=0;" vertex="1" parent="1">
          <mxGeometry x="50" y="125" width="60" height="30" as="geometry" />
        </mxCell>
        <mxCell id="EPGY-EgANNBScpYWpXv3-5" value="0" style="rounded=0;whiteSpace=wrap;html=1;fillColor=#d5e8d4;strokeColor=#82b366;" vertex="1" parent="1">
          <mxGeometry x="165" y="200" width="40" height="40" as="geometry" />
        </mxCell>
        <mxCell id="EPGY-EgANNBScpYWpXv3-6" value="1" style="rounded=0;whiteSpace=wrap;html=1;fillColor=#d5e8d4;strokeColor=#82b366;" vertex="1" parent="1">
          <mxGeometry x="165" y="240" width="40" height="40" as="geometry" />
        </mxCell>
        <mxCell id="EPGY-EgANNBScpYWpXv3-7" value="2" style="rounded=0;whiteSpace=wrap;html=1;fillColor=#d5e8d4;strokeColor=#82b366;" vertex="1" parent="1">
          <mxGeometry x="165" y="280" width="40" height="40" as="geometry" />
        </mxCell>
        <mxCell id="EPGY-EgANNBScpYWpXv3-9" value="3" style="rounded=0;whiteSpace=wrap;html=1;fillColor=#d5e8d4;strokeColor=#82b366;" vertex="1" parent="1">
          <mxGeometry x="165" y="320" width="40" height="40" as="geometry" />
        </mxCell>
        <mxCell id="EPGY-EgANNBScpYWpXv3-11" value="4" style="rounded=0;whiteSpace=wrap;html=1;fillColor=#d5e8d4;strokeColor=#82b366;" vertex="1" parent="1">
          <mxGeometry x="165" y="360" width="40" height="40" as="geometry" />
        </mxCell>
        <mxCell id="EPGY-EgANNBScpYWpXv3-26" style="edgeStyle=orthogonalEdgeStyle;rounded=0;orthogonalLoop=1;jettySize=auto;html=1;exitX=1;exitY=0.5;exitDx=0;exitDy=0;entryX=0;entryY=0.5;entryDx=0;entryDy=0;" edge="1" parent="1" source="EPGY-EgANNBScpYWpXv3-12" target="EPGY-EgANNBScpYWpXv3-23">
          <mxGeometry relative="1" as="geometry" />
        </mxCell>
        <mxCell id="EPGY-EgANNBScpYWpXv3-12" value="5" style="rounded=0;whiteSpace=wrap;html=1;fillColor=#d5e8d4;strokeColor=#82b366;" vertex="1" parent="1">
          <mxGeometry x="165" y="400" width="40" height="40" as="geometry" />
        </mxCell>
        <mxCell id="EPGY-EgANNBScpYWpXv3-13" value="6" style="rounded=0;whiteSpace=wrap;html=1;fillColor=#d5e8d4;strokeColor=#82b366;" vertex="1" parent="1">
          <mxGeometry x="165" y="440" width="40" height="40" as="geometry" />
        </mxCell>
        <mxCell id="EPGY-EgANNBScpYWpXv3-14" value="7" style="rounded=0;whiteSpace=wrap;html=1;fillColor=#d5e8d4;strokeColor=#82b366;" vertex="1" parent="1">
          <mxGeometry x="165" y="480" width="40" height="40" as="geometry" />
        </mxCell>
        <mxCell id="EPGY-EgANNBScpYWpXv3-15" value="8" style="rounded=0;whiteSpace=wrap;html=1;fillColor=#d5e8d4;strokeColor=#82b366;" vertex="1" parent="1">
          <mxGeometry x="165" y="520" width="40" height="40" as="geometry" />
        </mxCell>
        <mxCell id="EPGY-EgANNBScpYWpXv3-16" value="9" style="rounded=0;whiteSpace=wrap;html=1;fillColor=#d5e8d4;strokeColor=#82b366;" vertex="1" parent="1">
          <mxGeometry x="165" y="560" width="40" height="40" as="geometry" />
        </mxCell>
        <mxCell id="EPGY-EgANNBScpYWpXv3-17" value="10" style="rounded=0;whiteSpace=wrap;html=1;fillColor=#d5e8d4;strokeColor=#82b366;" vertex="1" parent="1">
          <mxGeometry x="165" y="600" width="40" height="40" as="geometry" />
        </mxCell>
        <mxCell id="EPGY-EgANNBScpYWpXv3-18" value="11" style="rounded=0;whiteSpace=wrap;html=1;fillColor=#d5e8d4;strokeColor=#82b366;" vertex="1" parent="1">
          <mxGeometry x="165" y="640" width="40" height="40" as="geometry" />
        </mxCell>
        <mxCell id="EPGY-EgANNBScpYWpXv3-19" value="12" style="rounded=0;whiteSpace=wrap;html=1;fillColor=#f8cecc;strokeColor=#b85450;" vertex="1" parent="1">
          <mxGeometry x="165" y="680" width="40" height="40" as="geometry" />
        </mxCell>
        <mxCell id="EPGY-EgANNBScpYWpXv3-39" style="edgeStyle=orthogonalEdgeStyle;rounded=0;orthogonalLoop=1;jettySize=auto;html=1;exitX=1;exitY=0.5;exitDx=0;exitDy=0;entryX=0;entryY=0.5;entryDx=0;entryDy=0;" edge="1" parent="1" source="EPGY-EgANNBScpYWpXv3-20" target="EPGY-EgANNBScpYWpXv3-38">
          <mxGeometry relative="1" as="geometry" />
        </mxCell>
        <mxCell id="EPGY-EgANNBScpYWpXv3-20" value="13" style="rounded=0;whiteSpace=wrap;html=1;fillColor=#ffcc99;strokeColor=#36393d;" vertex="1" parent="1">
          <mxGeometry x="165" y="720" width="40" height="40" as="geometry" />
        </mxCell>
        <mxCell id="EPGY-EgANNBScpYWpXv3-21" value="14" style="rounded=0;whiteSpace=wrap;html=1;fillColor=#cdeb8b;strokeColor=#36393d;" vertex="1" parent="1">
          <mxGeometry x="165" y="760" width="40" height="40" as="geometry" />
        </mxCell>
        <mxCell id="EPGY-EgANNBScpYWpXv3-22" value="DB 0" style="rounded=0;whiteSpace=wrap;html=1;fillColor=#b1ddf0;strokeColor=#10739e;" vertex="1" parent="1">
          <mxGeometry x="280" y="200" width="80" height="40" as="geometry" />
        </mxCell>
        <mxCell id="EPGY-EgANNBScpYWpXv3-23" value="DB 5" style="rounded=0;whiteSpace=wrap;html=1;fillColor=#b1ddf0;strokeColor=#10739e;" vertex="1" parent="1">
          <mxGeometry x="280" y="400" width="80" height="40" as="geometry" />
        </mxCell>
        <mxCell id="EPGY-EgANNBScpYWpXv3-24" value="DB 11" style="rounded=0;whiteSpace=wrap;html=1;fillColor=#b1ddf0;strokeColor=#10739e;" vertex="1" parent="1">
          <mxGeometry x="280" y="560" width="80" height="40" as="geometry" />
        </mxCell>
        <mxCell id="EPGY-EgANNBScpYWpXv3-25" value="" style="endArrow=classic;html=1;rounded=0;exitX=1;exitY=0.5;exitDx=0;exitDy=0;entryX=0;entryY=0.5;entryDx=0;entryDy=0;" edge="1" parent="1" source="EPGY-EgANNBScpYWpXv3-5" target="EPGY-EgANNBScpYWpXv3-22">
          <mxGeometry width="50" height="50" relative="1" as="geometry">
            <mxPoint x="400" y="510" as="sourcePoint" />
            <mxPoint x="450" y="460" as="targetPoint" />
          </mxGeometry>
        </mxCell>
        <mxCell id="EPGY-EgANNBScpYWpXv3-27" value="" style="endArrow=classic;html=1;rounded=0;exitX=1;exitY=0.5;exitDx=0;exitDy=0;entryX=0;entryY=0.5;entryDx=0;entryDy=0;" edge="1" parent="1" source="EPGY-EgANNBScpYWpXv3-18" target="EPGY-EgANNBScpYWpXv3-24">
          <mxGeometry width="50" height="50" relative="1" as="geometry">
            <mxPoint x="400" y="510" as="sourcePoint" />
            <mxPoint x="450" y="460" as="targetPoint" />
          </mxGeometry>
        </mxCell>
        <mxCell id="EPGY-EgANNBScpYWpXv3-28" value="" style="endArrow=classic;startArrow=classic;html=1;rounded=0;" edge="1" parent="1">
          <mxGeometry width="50" height="50" relative="1" as="geometry">
            <mxPoint x="80" y="680" as="sourcePoint" />
            <mxPoint x="80" y="200" as="targetPoint" />
          </mxGeometry>
        </mxCell>
        <mxCell id="EPGY-EgANNBScpYWpXv3-29" value="Direct pointers to file blocks" style="text;html=1;align=center;verticalAlign=middle;whiteSpace=wrap;rounded=0;rotation=-90;" vertex="1" parent="1">
          <mxGeometry x="-20" y="420" width="160" height="34.97" as="geometry" />
        </mxCell>
        <mxCell id="EPGY-EgANNBScpYWpXv3-30" value="" style="endArrow=classic;startArrow=classic;html=1;rounded=0;" edge="1" parent="1">
          <mxGeometry width="50" height="50" relative="1" as="geometry">
            <mxPoint x="80" y="680" as="sourcePoint" />
            <mxPoint x="80" y="800" as="targetPoint" />
          </mxGeometry>
        </mxCell>
        <mxCell id="EPGY-EgANNBScpYWpXv3-31" value="Pointers to indirectly addressed file blocks" style="text;html=1;align=center;verticalAlign=middle;whiteSpace=wrap;rounded=0;rotation=-90;" vertex="1" parent="1">
          <mxGeometry x="-20" y="725.03" width="160" height="34.97" as="geometry" />
        </mxCell>
        <mxCell id="EPGY-EgANNBScpYWpXv3-36" style="edgeStyle=orthogonalEdgeStyle;rounded=0;orthogonalLoop=1;jettySize=auto;html=1;exitX=1;exitY=0.5;exitDx=0;exitDy=0;entryX=0;entryY=0.5;entryDx=0;entryDy=0;" edge="1" parent="1" source="EPGY-EgANNBScpYWpXv3-32" target="EPGY-EgANNBScpYWpXv3-35">
          <mxGeometry relative="1" as="geometry" />
        </mxCell>
        <mxCell id="EPGY-EgANNBScpYWpXv3-32" value="IPB" style="rounded=0;whiteSpace=wrap;html=1;fillColor=#e1d5e7;strokeColor=#9673a6;" vertex="1" parent="1">
          <mxGeometry x="280" y="640" width="80" height="40" as="geometry" />
        </mxCell>
        <mxCell id="EPGY-EgANNBScpYWpXv3-33" value="" style="endArrow=classic;html=1;rounded=0;exitX=1;exitY=0.5;exitDx=0;exitDy=0;entryX=0;entryY=0.5;entryDx=0;entryDy=0;" edge="1" parent="1" source="EPGY-EgANNBScpYWpXv3-19" target="EPGY-EgANNBScpYWpXv3-32">
          <mxGeometry width="50" height="50" relative="1" as="geometry">
            <mxPoint x="400" y="510" as="sourcePoint" />
            <mxPoint x="450" y="460" as="targetPoint" />
          </mxGeometry>
        </mxCell>
        <mxCell id="EPGY-EgANNBScpYWpXv3-34" value="DB 12" style="rounded=0;whiteSpace=wrap;html=1;fillColor=#b1ddf0;strokeColor=#10739e;" vertex="1" parent="1">
          <mxGeometry x="420" y="580" width="80" height="40" as="geometry" />
        </mxCell>
        <mxCell id="EPGY-EgANNBScpYWpXv3-35" value="DB 13" style="rounded=0;whiteSpace=wrap;html=1;fillColor=#b1ddf0;strokeColor=#10739e;" vertex="1" parent="1">
          <mxGeometry x="420" y="640" width="80" height="40" as="geometry" />
        </mxCell>
        <mxCell id="EPGY-EgANNBScpYWpXv3-37" value="" style="endArrow=classic;html=1;rounded=0;exitX=1;exitY=0.5;exitDx=0;exitDy=0;entryX=0;entryY=0.5;entryDx=0;entryDy=0;" edge="1" parent="1" source="EPGY-EgANNBScpYWpXv3-32" target="EPGY-EgANNBScpYWpXv3-34">
          <mxGeometry width="50" height="50" relative="1" as="geometry">
            <mxPoint x="400" y="510" as="sourcePoint" />
            <mxPoint x="450" y="460" as="targetPoint" />
          </mxGeometry>
        </mxCell>
        <mxCell id="EPGY-EgANNBScpYWpXv3-42" style="edgeStyle=orthogonalEdgeStyle;rounded=0;orthogonalLoop=1;jettySize=auto;html=1;exitX=1;exitY=0.5;exitDx=0;exitDy=0;entryX=0;entryY=0.5;entryDx=0;entryDy=0;" edge="1" parent="1" source="EPGY-EgANNBScpYWpXv3-38" target="EPGY-EgANNBScpYWpXv3-40">
          <mxGeometry relative="1" as="geometry" />
        </mxCell>
        <mxCell id="EPGY-EgANNBScpYWpXv3-38" value="2IPB" style="rounded=0;whiteSpace=wrap;html=1;fillColor=#bac8d3;strokeColor=#23445d;" vertex="1" parent="1">
          <mxGeometry x="280" y="720" width="80" height="40" as="geometry" />
        </mxCell>
        <mxCell id="EPGY-EgANNBScpYWpXv3-45" style="edgeStyle=orthogonalEdgeStyle;rounded=0;orthogonalLoop=1;jettySize=auto;html=1;exitX=1;exitY=0.5;exitDx=0;exitDy=0;entryX=0;entryY=0.5;entryDx=0;entryDy=0;" edge="1" parent="1" source="EPGY-EgANNBScpYWpXv3-40" target="EPGY-EgANNBScpYWpXv3-44">
          <mxGeometry relative="1" as="geometry" />
        </mxCell>
        <mxCell id="EPGY-EgANNBScpYWpXv3-40" value="IPB" style="rounded=0;whiteSpace=wrap;html=1;fillColor=#e1d5e7;strokeColor=#9673a6;" vertex="1" parent="1">
          <mxGeometry x="420" y="720" width="80" height="40" as="geometry" />
        </mxCell>
        <mxCell id="EPGY-EgANNBScpYWpXv3-41" value="IPB" style="rounded=0;whiteSpace=wrap;html=1;fillColor=#e1d5e7;strokeColor=#9673a6;" vertex="1" parent="1">
          <mxGeometry x="420" y="780" width="80" height="40" as="geometry" />
        </mxCell>
        <mxCell id="EPGY-EgANNBScpYWpXv3-43" value="" style="endArrow=classic;html=1;rounded=0;exitX=1;exitY=0.5;exitDx=0;exitDy=0;entryX=0;entryY=0.5;entryDx=0;entryDy=0;" edge="1" parent="1" source="EPGY-EgANNBScpYWpXv3-38" target="EPGY-EgANNBScpYWpXv3-41">
          <mxGeometry width="50" height="50" relative="1" as="geometry">
            <mxPoint x="400" y="570" as="sourcePoint" />
            <mxPoint x="450" y="520" as="targetPoint" />
          </mxGeometry>
        </mxCell>
        <mxCell id="EPGY-EgANNBScpYWpXv3-44" value="DB" style="rounded=0;whiteSpace=wrap;html=1;fillColor=#b1ddf0;strokeColor=#10739e;" vertex="1" parent="1">
          <mxGeometry x="560" y="720" width="80" height="40" as="geometry" />
        </mxCell>
        <mxCell id="EPGY-EgANNBScpYWpXv3-49" style="edgeStyle=orthogonalEdgeStyle;rounded=0;orthogonalLoop=1;jettySize=auto;html=1;exitX=1;exitY=0.5;exitDx=0;exitDy=0;entryX=0;entryY=0.5;entryDx=0;entryDy=0;" edge="1" parent="1" source="EPGY-EgANNBScpYWpXv3-46" target="EPGY-EgANNBScpYWpXv3-47">
          <mxGeometry relative="1" as="geometry" />
        </mxCell>
        <mxCell id="EPGY-EgANNBScpYWpXv3-46" value="3IPB" style="rounded=0;whiteSpace=wrap;html=1;fillColor=#a0522d;fontColor=#ffffff;strokeColor=#6D1F00;" vertex="1" parent="1">
          <mxGeometry x="280" y="840" width="80" height="40" as="geometry" />
        </mxCell>
        <mxCell id="EPGY-EgANNBScpYWpXv3-52" style="edgeStyle=orthogonalEdgeStyle;rounded=0;orthogonalLoop=1;jettySize=auto;html=1;exitX=1;exitY=0.5;exitDx=0;exitDy=0;entryX=0;entryY=0.5;entryDx=0;entryDy=0;" edge="1" parent="1" source="EPGY-EgANNBScpYWpXv3-47" target="EPGY-EgANNBScpYWpXv3-50">
          <mxGeometry relative="1" as="geometry" />
        </mxCell>
        <mxCell id="EPGY-EgANNBScpYWpXv3-47" value="2IPB" style="rounded=0;whiteSpace=wrap;html=1;fillColor=#bac8d3;strokeColor=#23445d;" vertex="1" parent="1">
          <mxGeometry x="420" y="840" width="80" height="40" as="geometry" />
        </mxCell>
        <mxCell id="EPGY-EgANNBScpYWpXv3-48" value="2IPB" style="rounded=0;whiteSpace=wrap;html=1;fillColor=#bac8d3;strokeColor=#23445d;" vertex="1" parent="1">
          <mxGeometry x="420" y="900" width="80" height="40" as="geometry" />
        </mxCell>
        <mxCell id="EPGY-EgANNBScpYWpXv3-50" value="IPB" style="rounded=0;whiteSpace=wrap;html=1;fillColor=#e1d5e7;strokeColor=#9673a6;" vertex="1" parent="1">
          <mxGeometry x="560" y="840" width="80" height="40" as="geometry" />
        </mxCell>
        <mxCell id="EPGY-EgANNBScpYWpXv3-51" value="IPB" style="rounded=0;whiteSpace=wrap;html=1;fillColor=#e1d5e7;strokeColor=#9673a6;" vertex="1" parent="1">
          <mxGeometry x="560" y="910" width="80" height="40" as="geometry" />
        </mxCell>
        <mxCell id="EPGY-EgANNBScpYWpXv3-53" value="DB" style="rounded=0;whiteSpace=wrap;html=1;fillColor=#b1ddf0;strokeColor=#10739e;" vertex="1" parent="1">
          <mxGeometry x="680" y="800" width="80" height="40" as="geometry" />
        </mxCell>
        <mxCell id="EPGY-EgANNBScpYWpXv3-54" value="DB" style="rounded=0;whiteSpace=wrap;html=1;fillColor=#b1ddf0;strokeColor=#10739e;" vertex="1" parent="1">
          <mxGeometry x="680" y="880" width="80" height="40" as="geometry" />
        </mxCell>
        <mxCell id="EPGY-EgANNBScpYWpXv3-55" value="" style="endArrow=classic;html=1;rounded=0;exitX=1;exitY=0.5;exitDx=0;exitDy=0;entryX=0;entryY=0.5;entryDx=0;entryDy=0;" edge="1" parent="1" source="EPGY-EgANNBScpYWpXv3-46" target="EPGY-EgANNBScpYWpXv3-48">
          <mxGeometry width="50" height="50" relative="1" as="geometry">
            <mxPoint x="400" y="750" as="sourcePoint" />
            <mxPoint x="450" y="700" as="targetPoint" />
          </mxGeometry>
        </mxCell>
        <mxCell id="EPGY-EgANNBScpYWpXv3-57" value="" style="endArrow=classic;html=1;rounded=0;entryX=0;entryY=0.5;entryDx=0;entryDy=0;exitX=1;exitY=0.5;exitDx=0;exitDy=0;" edge="1" parent="1" source="EPGY-EgANNBScpYWpXv3-47" target="EPGY-EgANNBScpYWpXv3-51">
          <mxGeometry width="50" height="50" relative="1" as="geometry">
            <mxPoint x="400" y="750" as="sourcePoint" />
            <mxPoint x="450" y="700" as="targetPoint" />
          </mxGeometry>
        </mxCell>
        <mxCell id="EPGY-EgANNBScpYWpXv3-58" value="" style="endArrow=classic;html=1;rounded=0;entryX=0;entryY=0.5;entryDx=0;entryDy=0;exitX=1;exitY=0.5;exitDx=0;exitDy=0;" edge="1" parent="1" source="EPGY-EgANNBScpYWpXv3-50" target="EPGY-EgANNBScpYWpXv3-53">
          <mxGeometry width="50" height="50" relative="1" as="geometry">
            <mxPoint x="400" y="750" as="sourcePoint" />
            <mxPoint x="450" y="700" as="targetPoint" />
          </mxGeometry>
        </mxCell>
        <mxCell id="EPGY-EgANNBScpYWpXv3-59" value="" style="endArrow=classic;html=1;rounded=0;entryX=0;entryY=0.5;entryDx=0;entryDy=0;exitX=1;exitY=0.5;exitDx=0;exitDy=0;" edge="1" parent="1" source="EPGY-EgANNBScpYWpXv3-50" target="EPGY-EgANNBScpYWpXv3-54">
          <mxGeometry width="50" height="50" relative="1" as="geometry">
            <mxPoint x="400" y="750" as="sourcePoint" />
            <mxPoint x="450" y="700" as="targetPoint" />
          </mxGeometry>
        </mxCell>
        <mxCell id="EPGY-EgANNBScpYWpXv3-60" value="&lt;div&gt;&lt;b&gt;DB&lt;/b&gt; = Data block&lt;/div&gt;&lt;div&gt;&lt;b&gt;IPB &lt;/b&gt;= Indirect pointer block&lt;/div&gt;&lt;div&gt;&lt;b&gt;2IPB &lt;/b&gt;= Double IBP&lt;/div&gt;&lt;div&gt;&lt;b&gt;3IPB&lt;/b&gt; = Triple IPB&lt;/div&gt;" style="rounded=0;whiteSpace=wrap;html=1;fillColor=#fff2cc;strokeColor=#d6b656;dashed=1;align=center;" vertex="1" parent="1">
          <mxGeometry x="550" y="150" width="170" height="140" as="geometry" />
        </mxCell>
        <mxCell id="EPGY-EgANNBScpYWpXv3-61" value="" style="endArrow=classic;html=1;rounded=0;exitX=1;exitY=0.5;exitDx=0;exitDy=0;entryX=0;entryY=0.5;entryDx=0;entryDy=0;" edge="1" parent="1" source="EPGY-EgANNBScpYWpXv3-21" target="EPGY-EgANNBScpYWpXv3-46">
          <mxGeometry width="50" height="50" relative="1" as="geometry">
            <mxPoint x="400" y="600" as="sourcePoint" />
            <mxPoint x="450" y="550" as="targetPoint" />
          </mxGeometry>
        </mxCell>
      </root>
    </mxGraphModel>
  </diagram>
</mxfile>
